<svg version="1.0" xmlns="http://www.w3.org/2000/svg"
 width="155.000000pt" height="121.000000pt" viewBox="0 0 155.000000 121.000000"
 preserveAspectRatio="xMidYMid meet">
<g transform="translate(0.000000,121.000000) scale(0.100000,-0.100000)"
fill="#000000" stroke="none">
<path d="M566 1174 c-134 -32 -279 -124 -373 -236 -100 -117 -153 -251 -174
-431 -20 -183 20 -319 120 -409 68 -62 130 -82 230 -76 162 10 269 110 279
263 6 100 -16 164 -78 226 -67 67 -180 98 -255 69 -27 -10 -27 -10 -20 27 24
136 153 276 303 329 l52 19 0 117 c0 88 -3 118 -12 117 -7 0 -40 -7 -72 -15z"/>
<path d="M1420 1174 c-30 -8 -98 -35 -149 -60 -78 -39 -110 -62 -182 -133 -72
-72 -94 -101 -133 -181 -61 -126 -77 -190 -83 -341 -5 -111 -3 -136 16 -195
36 -116 121 -206 221 -234 53 -15 151 -12 203 6 60 20 139 91 168 151 45 93
26 230 -44 309 -57 65 -107 88 -192 88 -38 1 -78 -3 -87 -8 -16 -7 -17 -4 -12
25 13 71 63 160 123 219 58 57 183 130 222 130 18 0 19 10 19 120 0 136 6 129
-90 104z"/>
</g>
</svg>
