<svg width="45" height="45" viewBox="0 0 45 45" fill="none" xmlns="http://www.w3.org/2000/svg">
<path d="M22.5 0C10.125 0 0 10.1431 0 22.6355C0 33.9307 8.23499 43.3057 18.99 45H26.01C31.312 44.1593 36.1399 41.4432 39.6223 37.342C43.1047 33.2408 45.012 28.0248 44.9999 22.6355C44.9999 10.1431 34.875 0 22.5 0Z" fill="#CACACA"/>
<path d="M37.9986 15.9573C36.9499 16.3791 35.8379 16.6561 34.6992 16.7791C35.8994 16.1265 36.7977 15.0993 37.2266 13.889C36.1003 14.4985 34.8654 14.9257 33.5783 15.1567C32.7137 14.3156 31.5678 13.7578 30.3186 13.57C29.0694 13.3822 27.787 13.5749 26.6707 14.1181C25.5544 14.6614 24.6667 15.5248 24.1458 16.5741C23.6248 17.6233 23.4997 18.7997 23.7898 19.9203C21.5056 19.8162 19.2711 19.2765 17.2312 18.3362C15.1913 17.3959 13.3917 16.076 11.9492 14.4623C11.4386 15.2597 11.1703 16.1662 11.1717 17.0889C11.1717 18.8999 12.1854 20.4999 13.7266 21.4366C12.8146 21.4105 11.9226 21.1865 11.125 20.7834V20.8483C11.1253 22.0545 11.5843 23.2234 12.4242 24.157C13.2642 25.0905 14.4334 25.7312 15.7335 25.9704C14.8868 26.1791 13.999 26.2098 13.1374 26.0604C13.5039 27.0986 14.2184 28.0065 15.1808 28.6571C16.1431 29.3077 17.3051 29.6684 18.5041 29.6887C17.3125 30.5396 15.948 31.1687 14.4888 31.5399C13.0296 31.9111 11.5043 32.0171 10 31.8519C12.626 33.3874 15.6828 34.2026 18.8049 34.2C29.3723 34.2 35.1511 26.2402 35.1511 19.3371C35.1511 19.1123 35.1442 18.8849 35.1332 18.6626C36.2581 17.9234 37.2288 17.0077 38 15.9586L37.9986 15.9573Z" fill="black"/>
</svg>
